<svg width="177" height="45" viewBox="0 0 177 45" fill="none" xmlns="http://www.w3.org/2000/svg">
<path d="M0.443182 35V0.0909081H6.61364V13.1477H6.86932C7.1875 12.5114 7.63636 11.8352 8.21591 11.1193C8.79545 10.392 9.57955 9.77273 10.5682 9.26136C11.5568 8.73864 12.8182 8.47727 14.3523 8.47727C16.375 8.47727 18.1989 8.99432 19.8239 10.0284C21.4602 11.0511 22.7557 12.5682 23.7102 14.5795C24.6761 16.5795 25.1591 19.0341 25.1591 21.9432C25.1591 24.8182 24.6875 27.2614 23.7443 29.2727C22.8011 31.2841 21.517 32.8182 19.892 33.875C18.267 34.9318 16.4261 35.4602 14.3693 35.4602C12.8693 35.4602 11.625 35.2102 10.6364 34.7102C9.64773 34.2102 8.85227 33.608 8.25 32.9034C7.65909 32.1875 7.19886 31.5114 6.86932 30.875H6.51136V35H0.443182ZM6.49432 21.9091C6.49432 23.6023 6.73295 25.0852 7.21023 26.358C7.69886 27.6307 8.39773 28.625 9.30682 29.3409C10.2273 30.0455 11.3409 30.3977 12.6477 30.3977C14.0114 30.3977 15.1534 30.0341 16.0739 29.3068C16.9943 28.5682 17.6875 27.5625 18.1534 26.2898C18.6307 25.0057 18.8693 23.5455 18.8693 21.9091C18.8693 20.2841 18.6364 18.8409 18.1705 17.5795C17.7045 16.3182 17.0114 15.3295 16.0909 14.6136C15.1705 13.8977 14.0227 13.5398 12.6477 13.5398C11.3295 13.5398 10.2102 13.8864 9.28977 14.5795C8.36932 15.2727 7.67045 16.2443 7.19318 17.4943C6.72727 18.7443 6.49432 20.2159 6.49432 21.9091ZM33.3494 44.8182C32.5085 44.8182 31.7301 44.75 31.0142 44.6136C30.3097 44.4886 29.7472 44.3409 29.3267 44.1705L30.7585 39.3636C31.6563 39.625 32.4574 39.75 33.1619 39.7386C33.8665 39.7273 34.4858 39.5057 35.0199 39.0739C35.5653 38.6534 36.0256 37.9489 36.4006 36.9602L36.929 35.5455L27.4347 8.81818H33.9801L40.0142 28.5909H40.2869L46.3381 8.81818H52.9006L42.4176 38.1705C41.929 39.5568 41.2813 40.7443 40.4744 41.733C39.6676 42.733 38.679 43.4943 37.5085 44.017C36.3494 44.5511 34.9631 44.8182 33.3494 44.8182ZM72.9119 44.8182C72.071 44.8182 71.2926 44.75 70.5767 44.6136C69.8722 44.4886 69.3097 44.3409 68.8892 44.1705L70.321 39.3636C71.2188 39.625 72.0199 39.75 72.7244 39.7386C73.429 39.7273 74.0483 39.5057 74.5824 39.0739C75.1278 38.6534 75.5881 37.9489 75.9631 36.9602L76.4915 35.5455L66.9972 8.81818H73.5426L79.5767 28.5909H79.8494L85.9006 8.81818H92.4631L81.9801 38.1705C81.4915 39.5568 80.8438 40.7443 80.0369 41.733C79.2301 42.733 78.2415 43.4943 77.071 44.017C75.9119 44.5511 74.5256 44.8182 72.9119 44.8182ZM113.42 23.9886V8.81818H119.591V35H113.608V30.3466H113.335C112.744 31.8125 111.773 33.0114 110.42 33.9432C109.08 34.875 107.426 35.3409 105.46 35.3409C103.744 35.3409 102.227 34.9602 100.909 34.1989C99.6023 33.4261 98.5795 32.3068 97.8409 30.8409C97.1023 29.3636 96.733 27.5795 96.733 25.4886V8.81818H102.903V24.5341C102.903 26.1932 103.358 27.5114 104.267 28.4886C105.176 29.4659 106.369 29.9545 107.847 29.9545C108.756 29.9545 109.636 29.733 110.489 29.2898C111.341 28.8466 112.04 28.1875 112.585 27.3125C113.142 26.4261 113.42 25.3182 113.42 23.9886ZM131.561 26.7841L131.544 19.3352H132.533L141.942 8.81818H149.152L137.578 21.7045H136.3L131.561 26.7841ZM125.936 35V0.0909081H132.107V35H125.936ZM142.368 35L133.845 23.0852L138.004 18.7386L149.749 35H142.368ZM163.607 35.5114C161.05 35.5114 158.834 34.9489 156.959 33.8239C155.084 32.6989 153.629 31.125 152.595 29.1023C151.572 27.0795 151.061 24.7159 151.061 22.0114C151.061 19.3068 151.572 16.9375 152.595 14.9034C153.629 12.8693 155.084 11.2898 156.959 10.1648C158.834 9.03977 161.05 8.47727 163.607 8.47727C166.163 8.47727 168.379 9.03977 170.254 10.1648C172.129 11.2898 173.578 12.8693 174.601 14.9034C175.635 16.9375 176.152 19.3068 176.152 22.0114C176.152 24.7159 175.635 27.0795 174.601 29.1023C173.578 31.125 172.129 32.6989 170.254 33.8239C168.379 34.9489 166.163 35.5114 163.607 35.5114ZM163.641 30.5682C165.027 30.5682 166.186 30.1875 167.118 29.4261C168.05 28.6534 168.743 27.6193 169.197 26.3239C169.663 25.0284 169.896 23.5852 169.896 21.9943C169.896 20.392 169.663 18.9432 169.197 17.6477C168.743 16.3409 168.05 15.3011 167.118 14.5284C166.186 13.7557 165.027 13.3693 163.641 13.3693C162.22 13.3693 161.038 13.7557 160.095 14.5284C159.163 15.3011 158.464 16.3409 157.999 17.6477C157.544 18.9432 157.317 20.392 157.317 21.9943C157.317 23.5852 157.544 25.0284 157.999 26.3239C158.464 27.6193 159.163 28.6534 160.095 29.4261C161.038 30.1875 162.22 30.5682 163.641 30.5682Z" fill="black"/>
</svg>
