<svg width="319" height="104" viewBox="0 0 319 104" fill="none" xmlns="http://www.w3.org/2000/svg">
<path d="M57.1008 33.9656C56.9867 34.0226 56.7586 35.3344 56.4164 37.7867C55.4754 45.0012 54.734 48.9078 53.6219 52.1871C51.9109 57.2914 49.373 60.3426 45.0957 62.4527C41.6453 64.1637 36.9688 65.2187 27.7867 66.4164C24.1082 66.9297 23.8516 66.9867 23.8516 67.5C23.8516 68.0133 24.1082 68.0988 26.7316 68.4125C40.4762 70.1519 45.666 71.7773 49.4301 75.5414C53.1086 79.2199 54.734 84.2672 56.4164 97.1848C56.9012 100.863 56.9582 101.12 57.4715 101.12C57.9848 101.12 58.0703 100.863 58.4695 97.6695C60.1805 84.3242 61.8059 79.2484 65.5414 75.5414C69.3055 71.7773 74.4953 70.1519 88.2398 68.4125C90.8633 68.0703 91.1199 67.9848 91.1199 67.5C91.1199 66.9867 90.8633 66.9297 87.1848 66.4449C80.0559 65.5324 76.2348 64.7625 73.041 63.7359C67.7656 62.025 64.6859 59.5156 62.5758 55.2668C60.7793 51.6453 59.7527 47.1398 58.4695 37.3305C58.1844 35.1918 57.9848 34.0797 57.8707 33.9941C57.6426 33.823 57.3574 33.823 57.1008 33.9656Z" fill="black"/>
<path d="M23.7375 15.95C23.6625 15.9875 23.5125 16.85 23.2875 18.4625C22.6687 23.2063 22.1812 25.775 21.45 27.9313C20.325 31.2875 18.6562 33.2938 15.8437 34.6813C13.575 35.8063 10.5 36.5 4.4625 37.2875C2.04375 37.625 1.875 37.6625 1.875 38C1.875 38.3375 2.04375 38.3938 3.76875 38.6C12.8062 39.7438 16.2187 40.8125 18.6937 43.2875C21.1125 45.7063 22.1812 49.025 23.2875 57.5188C23.6062 59.9375 23.6437 60.1063 23.9812 60.1063C24.3187 60.1063 24.375 59.9375 24.6375 57.8375C25.7625 49.0625 26.8312 45.725 29.2875 43.2875C31.7625 40.8125 35.175 39.7438 44.2125 38.6C45.9375 38.375 46.1062 38.3188 46.1062 38C46.1062 37.6625 45.9375 37.625 43.5187 37.3063C38.8312 36.7063 36.3187 36.2 34.2187 35.525C30.75 34.4 28.725 32.75 27.3375 29.9563C26.1562 27.575 25.4812 24.6125 24.6375 18.1625C24.45 16.7563 24.3187 16.025 24.2437 15.9688C24.0937 15.8563 23.9062 15.8563 23.7375 15.95Z" fill="black"/>
<path d="M47.8469 1.13752C47.8031 1.1594 47.7156 1.66252 47.5844 2.60315C47.2234 5.37033 46.9391 6.86877 46.5125 8.12658C45.8563 10.0844 44.8828 11.2547 43.2422 12.0641C41.9187 12.7203 40.125 13.125 36.6031 13.5844C35.1922 13.7813 35.0938 13.8031 35.0938 14C35.0938 14.1969 35.1922 14.2297 36.1984 14.35C41.4703 15.0172 43.4609 15.6406 44.9047 17.0844C46.3156 18.4953 46.9391 20.4313 47.5844 25.386C47.7703 26.7969 47.7922 26.8953 47.9891 26.8953C48.1859 26.8953 48.2187 26.7969 48.3719 25.5719C49.0281 20.4531 49.6516 18.5063 51.0844 17.0844C52.5281 15.6406 54.5188 15.0172 59.7906 14.35C60.7969 14.2188 60.8953 14.186 60.8953 14C60.8953 13.8031 60.7969 13.7813 59.3859 13.5953C56.6516 13.2453 55.1859 12.95 53.9609 12.5563C51.9375 11.9 50.7563 10.9375 49.9469 9.30783C49.2578 7.91877 48.8641 6.19065 48.3719 2.42815C48.2625 1.60783 48.1859 1.18127 48.1422 1.14846C48.0547 1.08283 47.9453 1.08283 47.8469 1.13752Z" fill="black"/>
<g clip-path="url(#clip0_10_73)">
<path d="M117.084 79.7248C115.812 79.7248 114.635 79.6216 113.552 79.4152C112.486 79.2261 111.635 79.0024 110.999 78.7445L113.165 71.4693C114.523 71.8649 115.735 72.054 116.8 72.0369C117.866 72.0196 118.803 71.6843 119.611 71.0307C120.436 70.3943 121.132 69.328 121.699 67.8317L122.498 65.6904L108.138 25.2383H118.038L127.165 55.1646H127.577L136.73 25.2383H146.656L130.8 69.6634C130.061 71.7616 129.081 73.5589 127.861 75.0553C126.64 76.5688 125.145 77.7211 123.375 78.5123C121.622 79.3207 119.525 79.7248 117.084 79.7248ZM178.355 48.199V25.2383H187.688V64.8649H178.638V57.8219H178.226C177.332 60.0405 175.863 61.855 173.817 63.2654C171.789 64.6757 169.288 65.3808 166.315 65.3808C163.719 65.3808 161.425 64.8047 159.431 63.6523C157.454 62.4828 155.907 60.7887 154.79 58.57C153.673 56.3342 153.114 53.6339 153.114 50.4693V25.2383H162.447V49.0246C162.447 51.5356 163.135 53.5307 164.51 55.0098C165.885 56.4889 167.69 57.2285 169.924 57.2285C171.299 57.2285 172.631 56.8931 173.92 56.2223C175.209 55.5516 176.266 54.554 177.092 53.2297C177.934 51.8882 178.355 50.2113 178.355 48.199ZM197.286 79.7248V25.2383H206.464V31.7912H207.005C207.486 30.828 208.165 29.8047 209.042 28.7211C209.918 27.6204 211.104 26.683 212.6 25.9091C214.095 25.1179 216.003 24.7224 218.324 24.7224C221.383 24.7224 224.142 25.5049 226.599 27.07C229.075 28.6179 231.034 30.914 232.478 33.9582C233.939 36.9853 234.669 40.7003 234.669 45.1032C234.669 49.4546 233.956 53.1523 232.529 56.1966C231.103 59.2408 229.16 61.5627 226.702 63.1622C224.244 64.7616 221.461 65.5615 218.349 65.5615C216.08 65.5615 214.198 65.1831 212.703 64.4263C211.208 63.6696 210.005 62.758 209.093 61.6916C208.199 60.6081 207.504 59.5847 207.005 58.6216H206.619V79.7248H197.286ZM206.438 45.0516C206.438 47.6142 206.799 49.8587 207.521 51.785C208.26 53.7113 209.317 55.2162 210.692 56.2997C212.084 57.3661 213.768 57.8993 215.745 57.8993C217.808 57.8993 219.535 57.3489 220.927 56.2481C222.32 55.1302 223.368 53.6081 224.073 51.6818C224.795 49.7383 225.156 47.5282 225.156 45.0516C225.156 42.5921 224.803 40.4078 224.098 38.4988C223.394 36.5897 222.345 35.0934 220.953 34.0098C219.561 32.9263 217.825 32.3845 215.745 32.3845C213.751 32.3845 212.059 32.9091 210.666 33.9582C209.274 35.0074 208.217 36.4779 207.495 38.3697C206.79 40.2616 206.438 42.4889 206.438 45.0516ZM254.057 65.6646C251.548 65.6646 249.288 65.2174 247.277 64.3231C245.283 63.4115 243.702 62.07 242.533 60.2985C241.381 58.527 240.805 56.3427 240.805 53.7457C240.805 51.5098 241.218 49.6609 242.042 48.199C242.868 46.7371 243.994 45.5676 245.42 44.6904C246.847 43.8132 248.454 43.1511 250.241 42.7039C252.046 42.2396 253.911 41.9042 255.836 41.6978C258.156 41.457 260.039 41.242 261.482 41.0528C262.926 40.8465 263.974 40.5369 264.628 40.1241C265.298 39.6941 265.634 39.0319 265.634 38.1376V37.9828C265.634 36.0393 265.057 34.5344 263.906 33.4681C262.755 32.4017 261.096 31.8685 258.93 31.8685C256.644 31.8685 254.831 32.3673 253.49 33.3649C252.167 34.3624 251.273 35.5405 250.808 36.8993L242.095 35.6609C242.782 33.2531 243.917 31.2408 245.498 29.6241C247.079 27.9902 249.012 26.769 251.298 25.9607C253.585 25.1351 256.111 24.7224 258.879 24.7224C260.787 24.7224 262.686 24.9459 264.576 25.3931C266.467 25.8403 268.194 26.5798 269.758 27.6118C271.322 28.6265 272.577 30.011 273.522 31.7654C274.485 33.5196 274.967 35.7125 274.967 38.3439V64.8649H265.994V59.4214H265.685C265.118 60.5221 264.318 61.554 263.287 62.5172C262.273 63.4631 260.992 64.2285 259.446 64.8132C257.916 65.3808 256.12 65.6646 254.057 65.6646ZM256.48 58.8022C258.355 58.8022 259.978 58.4324 261.354 57.6928C262.729 56.9361 263.785 55.9385 264.525 54.7003C265.281 53.4619 265.659 52.1118 265.659 50.6499V45.9804C265.367 46.2211 264.868 46.4447 264.163 46.6511C263.476 46.8575 262.703 47.0381 261.843 47.1928C260.984 47.3477 260.133 47.4853 259.291 47.6057C258.449 47.7261 257.718 47.8292 257.1 47.9152C255.708 48.1044 254.461 48.414 253.361 48.8439C252.261 49.2739 251.393 49.8759 250.757 50.6499C250.121 51.4066 249.803 52.387 249.803 53.5909C249.803 55.3108 250.43 56.6093 251.685 57.4865C252.94 58.3636 254.538 58.8022 256.48 58.8022ZM288.734 79.7248C287.462 79.7248 286.284 79.6216 285.202 79.4152C284.137 79.2261 283.286 79.0024 282.65 78.7445L284.815 71.4693C286.173 71.8649 287.385 72.054 288.45 72.0369C289.516 72.0196 290.453 71.6843 291.261 71.0307C292.086 70.3943 292.782 69.328 293.349 67.8317L294.148 65.6904L279.788 25.2383H289.688L298.815 55.1646H299.227L308.38 25.2383H318.306L302.45 69.6634C301.711 71.7616 300.731 73.5589 299.511 75.0553C298.29 76.5688 296.795 77.7211 295.025 78.5123C293.272 79.3207 291.174 79.7248 288.734 79.7248Z" fill="black"/>
</g>
<defs>
<clipPath id="clip0_10_73">
<rect width="211" height="56" fill="white" transform="translate(108 24)"/>
</clipPath>
</defs>
</svg>
